<?xml version="1.0" encoding="UTF-8"?>
<svg xmlns="http://www.w3.org/2000/svg" xmlns:xlink="http://www.w3.org/1999/xlink" width="69pt" height="39pt" viewBox="0 0 69 39" version="1.1">
<g id="surface141433">
<path style="fill:none;stroke-width:0.4;stroke-linecap:butt;stroke-linejoin:round;stroke:rgb(0%,0%,0%);stroke-opacity:1;stroke-miterlimit:10;" d="M 220 560 Z M 220 560 " transform="matrix(1,0,0,-1,-191,594)"/>
<path style="fill:none;stroke-width:0.4;stroke-linecap:butt;stroke-linejoin:round;stroke:rgb(0%,0%,0%);stroke-opacity:1;stroke-miterlimit:10;" d="M 224 592 L 224 556 L 248 556 L 248 592 Z M 224 592 " transform="matrix(1,0,0,-1,-191,594)"/>
<path style="fill:none;stroke-width:0.4;stroke-linecap:butt;stroke-linejoin:round;stroke:rgb(0%,0%,0%);stroke-opacity:1;stroke-miterlimit:10;" d="M 248 556 L 248 592 L 260 592 L 260 556 Z M 248 556 " transform="matrix(1,0,0,-1,-191,594)"/>
<path style="fill:none;stroke-width:0.4;stroke-linecap:butt;stroke-linejoin:round;stroke:rgb(0%,0%,0%);stroke-opacity:1;stroke-miterlimit:10;" d="M 236.148438 588.988281 L 236.148438 559.011719 " transform="matrix(1,0,0,-1,-191,594)"/>
<path style="fill:none;stroke-width:0.4;stroke-linecap:butt;stroke-linejoin:round;stroke:rgb(0%,0%,0%);stroke-opacity:1;stroke-miterlimit:10;" d="M 224 588 L 224 560 L 192 560 L 192 588 Z M 224 588 " transform="matrix(1,0,0,-1,-191,594)"/>
<path style="fill:none;stroke-width:0.4;stroke-linecap:butt;stroke-linejoin:round;stroke:rgb(0%,0%,0%);stroke-opacity:1;stroke-miterlimit:10;" d="M 192.148438 555.011719 L 192.148438 559.011719 L 208.148438 559.011719 L 208.148438 555.011719 Z M 192.148438 555.011719 " transform="matrix(1,0,0,-1,-191,594)"/>
<path style="fill:none;stroke-width:0.4;stroke-linecap:butt;stroke-linejoin:round;stroke:rgb(0%,0%,0%);stroke-opacity:1;stroke-miterlimit:10;" d="M 192.148438 588.988281 L 192.148438 592.988281 L 208.148438 592.988281 L 208.148438 588.988281 Z M 192.148438 588.988281 " transform="matrix(1,0,0,-1,-191,594)"/>
<path style="fill:none;stroke-width:0.4;stroke-linecap:butt;stroke-linejoin:round;stroke:rgb(0%,0%,0%);stroke-opacity:1;stroke-miterlimit:10;" d="M 200.148438 588.988281 L 200.148438 559.011719 " transform="matrix(1,0,0,-1,-191,594)"/>
</g>
</svg>
