<?xml version="1.0" encoding="UTF-8"?>
<svg xmlns="http://www.w3.org/2000/svg" xmlns:xlink="http://www.w3.org/1999/xlink" width="121pt" height="39pt" viewBox="0 0 121 39" version="1.1">
<g id="surface139885">
<path style="fill:none;stroke-width:0.4;stroke-linecap:butt;stroke-linejoin:round;stroke:rgb(0%,0%,0%);stroke-opacity:1;stroke-miterlimit:10;" d="M 212 592 L 212 556 L 92 556 L 92 592 Z M 212 592 " transform="matrix(1,0,0,-1,-91,594)"/>
<path style="fill:none;stroke-width:0.4;stroke-linecap:butt;stroke-linejoin:round;stroke:rgb(0%,0%,0%);stroke-opacity:1;stroke-miterlimit:10;" d="M 104.148438 555.011719 L 104.148438 559.011719 L 120.148438 559.011719 L 120.148438 555.011719 Z M 104.148438 555.011719 " transform="matrix(1,0,0,-1,-91,594)"/>
<path style="fill:none;stroke-width:0.4;stroke-linecap:butt;stroke-linejoin:round;stroke:rgb(0%,0%,0%);stroke-opacity:1;stroke-miterlimit:10;" d="M 104.148438 588.988281 L 104.148438 592.988281 L 120.148438 592.988281 L 120.148438 588.988281 Z M 104.148438 588.988281 " transform="matrix(1,0,0,-1,-91,594)"/>
<path style="fill:none;stroke-width:0.4;stroke-linecap:butt;stroke-linejoin:round;stroke:rgb(0%,0%,0%);stroke-opacity:1;stroke-miterlimit:10;" d="M 112.148438 588.988281 L 112.148438 559.011719 " transform="matrix(1,0,0,-1,-91,594)"/>
</g>
</svg>
