<?xml version="1.0" encoding="UTF-8"?>
<svg xmlns="http://www.w3.org/2000/svg" xmlns:xlink="http://www.w3.org/1999/xlink" width="135pt" height="58pt" viewBox="0 0 135 58" version="1.1">
<g id="surface168917">
<path style="fill:none;stroke-width:0.4;stroke-linecap:butt;stroke-linejoin:round;stroke:rgb(0%,0%,0%);stroke-opacity:1;stroke-miterlimit:10;" d="M 200.804688 672.015625 C 200.796875 676.878906 196.847656 680.8125 191.984375 680.804688 C 187.121094 680.796875 183.1875 676.851563 183.195313 671.988281 C 183.203125 667.125 187.148438 663.1875 192.011719 663.195313 C 196.875 663.203125 200.8125 667.152344 200.804688 672.015625 Z M 200.804688 672.015625 " transform="matrix(1,0,0,-1,-163,721)"/>
<path style="fill:none;stroke-width:0.4;stroke-linecap:butt;stroke-linejoin:round;stroke:rgb(0%,0%,0%);stroke-opacity:1;stroke-miterlimit:10;" d="M 280.058594 672.136719 C 280.050781 677.003906 276.101563 680.9375 271.238281 680.929688 C 266.375 680.921875 262.4375 676.972656 262.445313 672.109375 C 262.453125 667.246094 266.402344 663.3125 271.265625 663.320313 C 276.128906 663.328125 280.066406 667.273438 280.058594 672.136719 Z M 280.058594 672.136719 " transform="matrix(1,0,0,-1,-163,721)"/>
<path style="fill:none;stroke-width:0.4;stroke-linecap:butt;stroke-linejoin:round;stroke:rgb(0%,0%,0%);stroke-opacity:1;stroke-miterlimit:10;" d="M 256.1875 683.460938 L 256.1875 720 L 164 720 L 164 683.460938 Z M 256.1875 683.460938 " transform="matrix(1,0,0,-1,-163,721)"/>
<path style="fill:none;stroke-width:0.4;stroke-linecap:butt;stroke-linejoin:round;stroke:rgb(0%,0%,0%);stroke-opacity:1;stroke-miterlimit:10;" d="M 164 683.460938 L 259.363281 683.460938 L 259.363281 714.4375 L 283.726563 714.4375 L 297.636719 694.3125 L 297.671875 672.167969 L 281.816406 672.140625 L 281.820313 672.140625 C 281.808594 677.976563 277.070313 682.699219 271.238281 682.691406 C 265.402344 682.683594 260.675781 677.945313 260.6875 672.109375 L 202.566406 672.015625 C 202.558594 677.851563 197.820313 682.574219 191.984375 682.566406 C 186.148438 682.558594 181.425781 677.820313 181.433594 671.984375 L 164 672 Z M 164 683.460938 " transform="matrix(1,0,0,-1,-163,721)"/>
</g>
</svg>
