<?xml version="1.0" encoding="UTF-8"?>
<svg xmlns="http://www.w3.org/2000/svg" xmlns:xlink="http://www.w3.org/1999/xlink" width="133pt" height="39pt" viewBox="0 0 133 39" version="1.1">
<g id="surface156655">
<path style="fill:none;stroke-width:0.4;stroke-linecap:butt;stroke-linejoin:round;stroke:rgb(0%,0%,0%);stroke-opacity:1;stroke-miterlimit:10;" d="M 220 626 Z M 220 626 " transform="matrix(1,0,0,-1,-127,660)"/>
<path style="fill:none;stroke-width:0.4;stroke-linecap:butt;stroke-linejoin:round;stroke:rgb(0%,0%,0%);stroke-opacity:1;stroke-miterlimit:10;" d="M 128 658 L 128 622 L 220 622 L 220 658 Z M 128 658 " transform="matrix(1,0,0,-1,-127,660)"/>
<path style="fill:none;stroke-width:0.4;stroke-linecap:butt;stroke-linejoin:round;stroke:rgb(0%,0%,0%);stroke-opacity:1;stroke-miterlimit:10;" d="M 220 654 L 220 626 L 224 626 L 224 654 Z M 220 654 " transform="matrix(1,0,0,-1,-127,660)"/>
<path style="fill:none;stroke-width:0.4;stroke-linecap:butt;stroke-linejoin:round;stroke:rgb(0%,0%,0%);stroke-opacity:1;stroke-miterlimit:10;" d="M 224 658 L 224 622 L 248 622 L 248 658 Z M 224 658 " transform="matrix(1,0,0,-1,-127,660)"/>
<path style="fill:none;stroke-width:0.4;stroke-linecap:butt;stroke-linejoin:round;stroke:rgb(0%,0%,0%);stroke-opacity:1;stroke-miterlimit:10;" d="M 248 622 L 248 658 L 260 658 L 260 622 Z M 248 622 " transform="matrix(1,0,0,-1,-127,660)"/>
<path style="fill:none;stroke-width:0.4;stroke-linecap:butt;stroke-linejoin:round;stroke:rgb(0%,0%,0%);stroke-opacity:1;stroke-miterlimit:10;" d="M 148.148438 621.011719 L 148.148438 625.011719 L 164.148438 625.011719 L 164.148438 621.011719 Z M 148.148438 621.011719 " transform="matrix(1,0,0,-1,-127,660)"/>
<path style="fill:none;stroke-width:0.4;stroke-linecap:butt;stroke-linejoin:round;stroke:rgb(0%,0%,0%);stroke-opacity:1;stroke-miterlimit:10;" d="M 148.148438 654.988281 L 148.148438 658.988281 L 164.148438 658.988281 L 164.148438 654.988281 Z M 148.148438 654.988281 " transform="matrix(1,0,0,-1,-127,660)"/>
<path style="fill:none;stroke-width:0.4;stroke-linecap:butt;stroke-linejoin:round;stroke:rgb(0%,0%,0%);stroke-opacity:1;stroke-miterlimit:10;" d="M 156.148438 654.988281 L 156.148438 625.011719 " transform="matrix(1,0,0,-1,-127,660)"/>
<path style="fill:none;stroke-width:0.4;stroke-linecap:butt;stroke-linejoin:round;stroke:rgb(0%,0%,0%);stroke-opacity:1;stroke-miterlimit:10;" d="M 236.148438 654.988281 L 236.148438 625.011719 " transform="matrix(1,0,0,-1,-127,660)"/>
</g>
</svg>
